<svg width="262" height="262" viewBox="0 -65.5 262 262" fill="none" xmlns="http://www.w3.org/2000/svg">
<path d="M65.5 0C29.4238 0 0 29.4238 0 65.5C0 101.613 29.3873 131 65.5 131C92.9135 131 104.098 116.818 116.964 98.25C113.126 92.0728 115.466 99.4196 112.286 93.5714C93.5714 107.607 87.9425 112.286 65.5 112.286C39.6948 112.286 18.7143 91.3052 18.7143 65.5C18.7143 39.5486 39.5486 18.7143 65.5 18.7143C80.6323 18.7143 90.2453 24.1239 99.1272 33.3348C108.009 42.5458 115.502 55.8504 123.105 69.8862C130.708 83.9219 138.42 98.6886 149.714 110.531C161.009 122.374 176.58 131 196.5 131C232.576 131 262 101.576 262 65.5C262 29.3873 232.613 0 196.5 0C168.429 0 171.974 9.90541 159.071 28.0714C162.909 34.139 146.827 44.7754 150.007 50.5871C161.411 32.1652 174.131 18.7143 196.5 18.7143C222.305 18.7143 243.286 39.6948 243.286 65.5C243.286 91.4515 222.451 112.286 196.5 112.286C181.624 112.286 172.266 106.876 163.458 97.6652C154.649 88.4542 147.119 75.1496 139.48 61.1138C131.841 47.0781 123.982 32.3114 112.578 20.4687C101.174 8.62612 85.6032 0 65.5 0Z" fill="#1a5c2a"/>
<path d="M93.5711 121.644C103.512 118.335 112.933 109.45 118.414 96.8981C121.167 88.8827 124.547 79.4334 117.237 86.9786C109.346 95.1151 101.295 101.968 93.5711 104.094V121.644Z" fill="#1a5c2a"/>
<path d="M194.941 18.7143V0.0123456C182.464 -0.266236 177.108 4.18414 165.904 11.9151C159.482 13.1204 149.035 9.50678 139.322 23.1604C133.686 31.0847 134.419 42.8264 133.354 44.406C132.292 45.9884 133.01 54.6279 144.216 53.6828C155.422 52.7406 175.107 32.75 175.107 32.75C180.867 28.3105 188.649 18.9558 194.941 18.7143Z" fill="#1a5c2a"/>
</svg>
