<svg width="200" height="200" viewBox="0 0 200 200" fill="none" xmlns="http://www.w3.org/2000/svg">
<g clip-path="url(#clip0_3632_3988)">
<path d="M184 0H16C7.16344 0 0 7.16344 0 16V184C0 192.837 7.16344 200 16 200H184C192.837 200 200 192.837 200 184V16C200 7.16344 192.837 0 184 0Z" fill="black"/>
<path d="M94 8C93.5 32 93.0606 38 92 73C91.5 89.5 91 98 88 110C85 120 81 130 76 140C71 150 66 160 62 170C59 176 57 182 56 188C60 182 64 174 69 164C75 152 80 142 84 134C88 126 92 118 94.5 111C97 105 99 101 100 98C101 101 103 105 105.5 111C108 118 112 126 116 134C120 142 125 152 131 164C136 174 140 182 144 188C143 182 141 176 138 170C134 160 129 150 124 140C119 130 115 120 112 110C109 98 108.449 88.5 108 73C107 38.5 106.5 33 106 8H94Z" fill="white"/>
</g>
<defs>
<clipPath id="clip0_3632_3988">
<rect width="200" height="200" fill="white"/>
</clipPath>
</defs>
</svg>
